<svg version="1.2" xmlns="http://www.w3.org/2000/svg" viewBox="0 0 900 900" width="780" height="780">
	<title>1608</title>
	<style>
		.s0 { fill: #005f93 } 
		.s1 { fill: #0966a3 } 
		.s2 { fill: #0d68a1 } 
		.s3 { fill: #157eb7 } 
		.s4 { fill: #146eaa } 
		.s5 { fill: #30a8da } 
		.s6 { fill: #238bc8 } 
		.s7 { fill: #024f85 } 
		.s8 { fill: #004772 } 
		.s9 { fill: #3ebde5 } 
	</style>
	<g id="layer">
		<g id="&lt;Group&gt;">
			<path id="&lt;Path&gt;" class="s0" d="m463.2 291.5l-30 0.9 46.1-33.1z"/>
			<path id="&lt;Path&gt;" class="s0" d="m433.2 292.4l-22.2 3v-19.1z"/>
			<path id="&lt;Path&gt;" class="s1" d="m411 276.3l68.3-17-46.1 33.1z"/>
			<path id="&lt;Path&gt;" class="s2" d="m460.2 322.4l-27-30 30-0.9z"/>
			<path id="&lt;Path&gt;" class="s3" d="m463.2 291.5l16.1-32.2-19.1 63.1z"/>
			<path id="&lt;Path&gt;" class="s4" d="m411 276.3v19.1l-30.5-1.2z"/>
			<path id="&lt;Path&gt;" class="s0" d="m380.5 294.2l30.5 1.2-31.3 10.6z"/>
			<path id="&lt;Path&gt;" class="s4" d="m440.7 253.7l38.6 5.6-68.3 17z"/>
			<path id="&lt;Path&gt;" class="s3" d="m411 276.3l4-21.4 25.7-1.2z"/>
			<path id="&lt;Path&gt;" class="s5" d="m415 254.9l33-14.9-7.3 13.7z"/>
			<path id="&lt;Path&gt;" class="s6" d="m389.6 277.8l25.4-22.9-4 21.4z"/>
			<path id="&lt;Path&gt;" class="s3" d="m411 276.3l-30.5 17.9 9.1-16.4z"/>
			<path id="&lt;Path&gt;" class="s5" d="m389.6 277.8l-11.3-6.2 36.7-16.7z"/>
			<path id="&lt;Path&gt;" class="s6" d="m389.6 277.8l-9.1 16.4-14.5-16.7z"/>
			<path id="&lt;Path&gt;" class="s3" d="m448 240l31.3 19.3-38.6-5.6z"/>
			<path id="&lt;Path&gt;" class="s6" d="m474.2 245.4l5.1 13.9-31.3-19.3z"/>
			<path id="&lt;Path&gt;" class="s5" d="m448 240l27.3-3.3-1.1 8.7z"/>
			<path id="&lt;Path&gt;" class="s3" d="m475.3 236.7l4 22.6-5.1-13.9z"/>
			<path id="&lt;Path&gt;" class="s4" d="m460.2 322.4l19.1-63.1 2.2 31.5z"/>
			<path id="&lt;Path&gt;" class="s0" d="m481.5 290.8l17.3 27.2-38.6 4.4z"/>
			<path id="&lt;Path&gt;" class="s3" d="m446 348.5l-12.8-56.1 27 30z"/>
			<path id="&lt;Path&gt;" class="s4" d="m379.7 306l-13.7-17 14.5 5.2z"/>
			<path id="&lt;Path&gt;" class="s3" d="m380.5 294.2l-14.5-5.2v-11.5z"/>
			<path id="&lt;Path&gt;" class="s5" d="m346.8 292.8l19.2-3.8-17 34.8z"/>
			<path id="&lt;Path&gt;" class="s5" d="m356.6 474.2l-1.5-7.5 40.4 28.5z"/>
			<path id="&lt;Path&gt;" class="s5" d="m114.7 438.6l-13-14.9 55.8-0.3z"/>
			<path id="&lt;Path&gt;" class="s5" d="m404 682.5l6.5-13 25.9 8.9z"/>
			<path id="&lt;Path&gt;" class="s5" d="m212 764.5l19.5-7 7 22z"/>
			<path id="&lt;Path&gt;" class="s3" d="m361.2 318.7l4.8-29.7 5.3 56.8z"/>
			<path id="&lt;Path&gt;" class="s6" d="m371.3 345.8l-7 21-15.3-43z"/>
			<path id="&lt;Path&gt;" class="s3" d="m380.3 330l-14.3-41 13.7 17z"/>
			<path id="&lt;Path&gt;" class="s4" d="m371.3 345.8l-5.3-56.8 14.3 41z"/>
			<path id="&lt;Path&gt;" class="s3" d="m380.3 330l3.9 41.2-12.9-25.4z"/>
			<path id="&lt;Path&gt;" class="s4" d="m371.3 345.8l12.9 25.4-19.9-4.4z"/>
			<path id="&lt;Path&gt;" class="s4" d="m376.5 377.4l-5.3 11.6-6.9-22.2z"/>
			<path id="&lt;Path&gt;" class="s6" d="m384.2 371.2l-13 17.8 5.3-11.6z"/>
			<path id="&lt;Path&gt;" class="s5" d="m402.8 391l-31.6-2 13-17.8z"/>
			<path id="&lt;Path&gt;" class="s6" d="m371.5 413l-0.3-24 19.6 23.4z"/>
			<path id="&lt;Path&gt;" class="s3" d="m390.8 412.4l-19.6-23.4 31.6 2z"/>
			<path id="&lt;Path&gt;" class="s5" d="m402.8 391l6.4 30.7-18.4-9.3z"/>
			<path id="&lt;Path&gt;" class="s0" d="m390.8 412.4l18.4 9.3-27.4 5.3z"/>
			<path id="&lt;Path&gt;" class="s6" d="m411.2 407.7l-2 14-6.4-30.7z"/>
			<path id="&lt;Path&gt;" class="s7" d="m460.2 322.4l38.6-4.4 25.2 25z"/>
			<path id="&lt;Path&gt;" class="s0" d="m524 343l-25.2-25 46.4 13.5z"/>
			<path id="&lt;Path&gt;" class="s2" d="m545.2 331.5l-46.4-13.5 46.4-7.1z"/>
			<path id="&lt;Path&gt;" class="s3" d="m545.2 310.9l-46.4 7.1 18.2-44z"/>
			<path id="&lt;Path&gt;" class="s1" d="m479.3 259.3l19.5 58.7-17.3-27.2z"/>
			<path id="&lt;Path&gt;" class="s7" d="m465.1 391.7l-19.1-43.2 14.2-26.1z"/>
			<path id="&lt;Path&gt;" class="s2" d="m450.6 377.3l-4.6-28.8 19.1 43.2z"/>
			<path id="&lt;Path&gt;" class="s6" d="m517 274l-18.2 44-19.5-58.7z"/>
			<path id="&lt;Path&gt;" class="s5" d="m479.3 259.3l-4-22.6 41.7 37.3z"/>
			<path id="&lt;Path&gt;" class="s6" d="m517 274l-41.7-37.3 37 3.7z"/>
			<path id="&lt;Path&gt;" class="s3" d="m512.3 240.4l-37-3.7-3.5-25.4z"/>
			<path id="&lt;Path&gt;" class="s4" d="m471.8 211.3l44.3 21-3.8 8.1z"/>
			<path id="&lt;Path&gt;" class="s7" d="m537.4 233.5l-21.3-1.2-13.5-16.2z"/>
			<path id="&lt;Path&gt;" class="s0" d="m502.6 216.1l-2.5-17.7 37.3 35.1z"/>
			<path id="&lt;Path&gt;" class="s0" d="m502.6 216.1l13.5 16.2-44.3-21z"/>
			<path id="&lt;Path&gt;" class="s4" d="m471.8 211.3l28.3-12.9 2.5 17.7z"/>
			<path id="&lt;Path&gt;" class="s0" d="m460.7 177.2l39.4 21.2-28.3 12.9z"/>
			<path id="&lt;Path&gt;" class="s5" d="m505.4 179.5l-5.3 18.9-4.6-24.6z"/>
			<path id="&lt;Path&gt;" class="s3" d="m495.5 173.8l4.6 24.6-13.2-17.8z"/>
			<path id="&lt;Path&gt;" class="s4" d="m486.9 180.6l13.2 17.8-39.4-21.2z"/>
			<path id="&lt;Path&gt;" class="s3" d="m537.4 233.5l-37.3-35.1 43 18.5z"/>
			<path id="&lt;Path&gt;" class="s6" d="m543.1 216.9l-43-18.5 5.3-18.9z"/>
			<path id="&lt;Path&gt;" class="s3" d="m505.4 179.5l40.7 25.4-3 12z"/>
			<path id="&lt;Path&gt;" class="s5" d="m550.1 204.8l-4 0.1-1.4-20z"/>
			<path id="&lt;Path&gt;" class="s6" d="m544.7 184.9l1.4 20-14.4-20z"/>
			<path id="&lt;Path&gt;" class="s5" d="m531.7 184.9l14.4 20-40.7-25.4z"/>
			<path id="&lt;Path&gt;" class="s6" d="m505.4 179.5l12.2-12.2 14.1 17.6z"/>
			<path id="&lt;Path&gt;" class="s3" d="m531.7 184.9l-14.1-17.6 15.2 6.5z"/>
			<path id="&lt;Path&gt;" class="s4" d="m532.8 173.8l11.9 11.1h-13z"/>
			<path id="&lt;Path&gt;" class="s7" d="m544.4 174.6l0.3 10.3-11.9-11.1z"/>
			<path id="&lt;Path&gt;" class="s6" d="m532.8 173.8l-15.2-6.5 26.8 7.3z"/>
			<path id="&lt;Path&gt;" class="s4" d="m544.4 174.6l-26.8-7.3 17.1-5.3z"/>
			<path id="&lt;Path&gt;" class="s6" d="m534.7 162l6.5-8.4 3.2 21z"/>
			<path id="&lt;Path&gt;" class="s3" d="m522.4 141.2l18.8 12.4-6.5 8.4z"/>
			<path id="&lt;Path&gt;" class="s0" d="m534.7 162l-17.1 5.3 4.8-26.1z"/>
			<path id="&lt;Path&gt;" class="s0" d="m495.5 173.8l22.1-6.5-12.2 12.2z"/>
			<path id="&lt;Path&gt;" class="s0" d="m486.9 180.6l-26.2-3.4 34.8-3.4z"/>
			<path id="&lt;Path&gt;" class="s4" d="m495.5 173.8l-34.8 3.4 8.2-22.8z"/>
			<path id="&lt;Path&gt;" class="s0" d="m486.2 152.8l6.4-12.8 2.9 33.8z"/>
			<path id="&lt;Path&gt;" class="s4" d="m495.5 173.8l-2.9-33.8 25 27.3z"/>
			<path id="&lt;Path&gt;" class="s0" d="m517.6 167.3l-25-27.3 20.3 11.2z"/>
			<path id="&lt;Path&gt;" class="s4" d="m512.9 151.2l9.5-10-4.8 26.1z"/>
			<path id="&lt;Path&gt;" class="s5" d="m492.6 140l29.8 1.2-9.5 10z"/>
			<path id="&lt;Path&gt;" class="s2" d="m427.5 167.6l33.2 9.6-30.6 6.3z"/>
			<path id="&lt;Path&gt;" class="s7" d="m463.2 170.2l-2.5 7-33.2-9.6z"/>
			<path id="&lt;Path&gt;" class="s0" d="m427.5 167.6l12.6-8.4 23.1 11z"/>
			<path id="&lt;Path&gt;" class="s0" d="m323.9 164.5l12.5-18 5 4.5z"/>
			<path id="&lt;Path&gt;" class="s0" d="m316.1 291.6l-0.2-4 11.6 0.7z"/>
			<path id="&lt;Path&gt;" class="s0" d="m372.2 508.9v-14.5l30.9 14.7z"/>
			<path id="&lt;Path&gt;" class="s0" d="m266 669l6-33.5 8.6 33.6z"/>
			<path id="&lt;Path&gt;" class="s0" d="m71.5 677.4l24-9.6 26.6 14.2z"/>
			<path id="&lt;Path&gt;" class="s0" d="m441 730.5l21 0.5 3.5 20.5z"/>
			<path id="&lt;Path&gt;" class="s7" d="m430.1 183.5l-35.7-10.4 33.1-5.5z"/>
			<path id="&lt;Path&gt;" class="s6" d="m389.9 199.8l12.1-16.6 28.1 0.3z"/>
			<path id="&lt;Path&gt;" class="s6" d="m348.3 138.8l18.2 1.2 16 18z"/>
			<path id="&lt;Path&gt;" class="s6" d="m441.3 150.5l3.7-12.7 10.8 19z"/>
			<path id="&lt;Path&gt;" class="s4" d="m430.1 183.5l-0.6 21.1-39.6-4.8z"/>
			<path id="&lt;Path&gt;" class="s0" d="m460.7 177.2l-31.2 27.4 0.6-21.1z"/>
			<path id="&lt;Path&gt;" class="s3" d="m382 166.4l20 16.8-12.1 16.6z"/>
			<path id="&lt;Path&gt;" class="s3" d="m345.8 163.4l23-7 4.7 15z"/>
			<path id="&lt;Path&gt;" class="s3" d="m337.8 262.7l12.5-7 16.2 11.1z"/>
			<path id="&lt;Path&gt;" class="s3" d="m209.7 482.1l4.4-19.1 18.1 3.2z"/>
			<path id="&lt;Path&gt;" class="s3" d="m503.5 559l9-7.8 31.1-2.1z"/>
			<path id="&lt;Path&gt;" class="s3" d="m344.3 370.5l-19.4 2.9-9.2-7z"/>
			<path id="&lt;Path&gt;" class="s3" d="m429.2 390l3.6-21.3 13.4 17.7z"/>
			<path id="&lt;Path&gt;" class="s3" d="m345.5 440.4l-19.1-11.1 30.2-4.2z"/>
			<path id="&lt;Path&gt;" class="s3" d="m195.6 377l-17.4-14.3 66.6 21.3z"/>
			<path id="&lt;Path&gt;" class="s3" d="m586.5 277.5l-4.3-18 16.3 17.8z"/>
			<path id="&lt;Path&gt;" class="s3" d="m251.5 192l-4.9-11.2 35.6 9.9z"/>
			<path id="&lt;Path&gt;" class="s3" d="m481.5 620l-4.5-24.5 21.5 24.5z"/>
			<path id="&lt;Path&gt;" class="s3" d="m396.1 136.1l3.6-6.2 8.5 7.9z"/>
			<path id="&lt;Path&gt;" class="s0" d="m412.2 159.3l27.9-0.1-45.7 13.9z"/>
			<path id="&lt;Path&gt;" class="s4" d="m394.4 173.1l-7.8-21.7 25.6 7.9z"/>
			<path id="&lt;Path&gt;" class="s5" d="m412.2 159.3l-25.6-7.9 53.5 7.8z"/>
			<path id="&lt;Path&gt;" class="s7" d="m447.9 200.2l-18.4 4.4 31.2-27.4z"/>
			<path id="&lt;Path&gt;" class="s8" d="m412.1 216.7l17.4-12.1 18.4-4.4z"/>
			<path id="&lt;Path&gt;" class="s7" d="m389.9 199.8l39.6 4.8-17.4 12.1z"/>
			<path id="&lt;Path&gt;" class="s8" d="m412.1 216.7l-47.9-5.7 26.9-2.9z"/>
			<path id="&lt;Path&gt;" class="s0" d="m391.1 208.1l-1.2-8.3 22.2 16.9z"/>
			<path id="&lt;Path&gt;" class="s4" d="m364.2 211l25.7-11.2 1.2 8.3z"/>
			<path id="&lt;Path&gt;" class="s3" d="m355.9 197l34 2.8-25.7 11.2z"/>
			<path id="&lt;Path&gt;" class="s9" d="m355.1 177.8l18.5 14.1-17.7 5.1z"/>
			<path id="&lt;Path&gt;" class="s9" d="m303.2 254.6l18.4 14.2-21.1-6.1z"/>
			<path id="&lt;Path&gt;" class="s9" d="m483 129.3l-2.4 10.1-17.7 5.1z"/>
			<path id="&lt;Path&gt;" class="s9" d="m583.4 243.4l1.6 7.3-12-5.5z"/>
			<path id="&lt;Path&gt;" class="s9" d="m300.5 171.1l22.7 0.6-9.1 7.7z"/>
			<path id="&lt;Path&gt;" class="s5" d="m517 274l-4.7-33.6 32.9 70.5z"/>
			<path id="&lt;Path&gt;" class="s7" d="m545.2 331.5l-18.2 30-3-18.5z"/>
			<path id="&lt;Path&gt;" class="s1" d="m524 343l3 18.5-66.8-39.1z"/>
			<path id="&lt;Path&gt;" class="s1" d="m460.2 322.4l28.3 38.6-23.4 30.7z"/>
			<path id="&lt;Path&gt;" class="s3" d="m527 361.5l-38.5-0.5-28.3-38.6z"/>
			<path id="&lt;Path&gt;" class="s0" d="m465.1 391.7l23.4-30.7 38.5 0.5z"/>
			<path id="&lt;Path&gt;" class="s6" d="m465.1 391.7l-35.6 49.8 19.7-41z"/>
			<path id="&lt;Path&gt;" class="s3" d="m463.5 444l-34-2.5 35.6-49.8z"/>
			<path id="&lt;Path&gt;" class="s5" d="m417.5 454.5l12-13 34 2.5z"/>
			<path id="&lt;Path&gt;" class="s6" d="m463.5 444l-52 31.5 6-21z"/>
			<path id="&lt;Path&gt;" class="s2" d="m418.5 498.5l-7-23 25.5 26.5z"/>
			<path id="&lt;Path&gt;" class="s0" d="m437 502l-25.5-26.5 93.9 44.1z"/>
			<path id="&lt;Path&gt;" class="s3" d="m479.5 493l-68-17.5 52-31.5z"/>
			<path id="&lt;Path&gt;" class="s2" d="m505.4 519.6l-93.9-44.1 68 17.5z"/>
			<path id="&lt;Path&gt;" class="s8" d="m437 502l46.6 19.2-65.1-22.7z"/>
			<path id="&lt;Path&gt;" class="s7" d="m483.6 521.2l-46.8-2.5-18.3-20.2z"/>
			<path id="&lt;Path&gt;" class="s8" d="m434.1 584.7l2.7-66 46.8 2.5z"/>
			<path id="&lt;Path&gt;" class="s0" d="m414.4 514.4l22.4 4.3-40.8 20.8z"/>
			<path id="&lt;Path&gt;" class="s1" d="m396 539.5l40.8-20.8-2.7 66z"/>
			<path id="&lt;Path&gt;" class="s6" d="m400.5 568.5l-23.3 17.2 18.8-46.2z"/>
			<path id="&lt;Path&gt;" class="s3" d="m396 539.5l38.1 45.2-33.6-16.2z"/>
			<path id="&lt;Path&gt;" class="s1" d="m400.5 568.5l33.6 16.2-24.3 33.7z"/>
			<path id="&lt;Path&gt;" class="s0" d="m409.8 618.4l-39.6-15.4 30.3-34.5z"/>
			<path id="&lt;Path&gt;" class="s8" d="m402.8 628.7l-27.3 11.3 34.3-21.6z"/>
			<path id="&lt;Path&gt;" class="s7" d="m409.8 618.4l-34.3 21.6-5.3-37z"/>
			<path id="&lt;Path&gt;" class="s6" d="m370.2 603l-33.7 41 4.7-29.3z"/>
			<path id="&lt;Path&gt;" class="s5" d="m341.2 614.7l-4.7 29.3-29.7 15z"/>
			<path id="&lt;Path&gt;" class="s1" d="m375.5 640l-39 4 33.7-41z"/>
			<path id="&lt;Path&gt;" class="s0" d="m349.2 667l-12.7-23 39-4z"/>
			<path id="&lt;Path&gt;" class="s7" d="m299.8 687.7l36.7-43.7 12.7 23z"/>
			<path id="&lt;Path&gt;" class="s1" d="m306.8 659l29.7-15-36.7 43.7z"/>
			<path id="&lt;Path&gt;" class="s6" d="m299.8 687.7l-29.6 31.7 18.2-29.9z"/>
			<path id="&lt;Path&gt;" class="s0" d="m349.2 667l-50.4 45 1-24.3z"/>
			<path id="&lt;Path&gt;" class="s7" d="m299.8 687.7l-1 24.3-28.6 7.4z"/>
			<path id="&lt;Path&gt;" class="s8" d="m270.2 719.4l28.6-7.4-6.4 22.3z"/>
			<path id="&lt;Path&gt;" class="s5" d="m270.8 702.7l17.6-13.2-18.2 29.9z"/>
			<path id="&lt;Path&gt;" class="s9" d="m270.2 719.4l-23.6-10.2 24.2-6.5z"/>
			<path id="&lt;Path&gt;" class="s0" d="m254.8 740.4l-8.2-31.2 23.6 10.2z"/>
			<path id="&lt;Path&gt;" class="s7" d="m270.2 719.4l22.2 14.9-37.6 6.1z"/>
			<path id="&lt;Path&gt;" class="s6" d="m268.8 766.2l19.6-31.9-11.5 53z"/>
			<path id="&lt;Path&gt;" class="s0" d="m254.8 740.4l37.6-6.1-23.6 31.9z"/>
			<path id="&lt;Path&gt;" class="s7" d="m268.8 766.2l-1.7 22.5-12.3-48.3z"/>
			<path id="&lt;Path&gt;" class="s0" d="m280.9 787.3l-13.8 1.4 1.7-22.5z"/>
			<path id="&lt;Path&gt;" class="s7" d="m285.9 805.7l-18.8-17 13.8-1.4z"/>
			<path id="&lt;Path&gt;" class="s0" d="m280.7 809.9l-13.6-21.2 18.8 17z"/>
			<path id="&lt;Path&gt;" class="s8" d="m266.8 801.5l0.3-12.8 13.6 21.2z"/>
			<path id="&lt;Path&gt;" class="s7" d="m250.7 771.3l16.4 17.4-0.3 12.8z"/>
			<path id="&lt;Path&gt;" class="s0" d="m254.8 740.4l12.3 48.3-16.4-17.4z"/>
			<path id="&lt;Path&gt;" class="s7" d="m236.8 740.4l-16.3-5.2-8.6-13.1z"/>
			<path id="&lt;Path&gt;" class="s3" d="m527 361.5l-11.8 49-50.1-18.8z"/>
			<path id="&lt;Path&gt;" class="s1" d="m465.1 391.7l26.3 34.2-27.9 18.1z"/>
			<path id="&lt;Path&gt;" class="s0" d="m515.2 410.5l-23.8 15.4-26.3-34.2z"/>
			<path id="&lt;Path&gt;" class="s1" d="m508.1 444.3l-16.7-18.4 23.8-15.4z"/>
			<path id="&lt;Path&gt;" class="s3" d="m463.5 444l27.9-18.1 16.7 18.4z"/>
			<path id="&lt;Path&gt;" class="s6" d="m463.5 444l44.6 0.3-28.6 48.7z"/>
			<path id="&lt;Path&gt;" class="s5" d="m479.5 493l28.6-48.7 18 6.9z"/>
			<path id="&lt;Path&gt;" class="s6" d="m526.1 451.2l43.2 46.5-89.8-4.7z"/>
			<path id="&lt;Path&gt;" class="s0" d="m479.5 493l89.8 4.7-63.9 21.9z"/>
			<path id="&lt;Path&gt;" class="s5" d="m585.1 482.3l-15.8 15.4-43.2-46.5z"/>
			<path id="&lt;Path&gt;" class="s2" d="m505.4 519.6l63.9-21.9-4.2 28.3z"/>
			<path id="&lt;Path&gt;" class="s7" d="m565.1 526l20.7 16-80.4-22.4z"/>
			<path id="&lt;Path&gt;" class="s0" d="m565.1 526l4.2-28.3 47.7 51.4z"/>
			<path id="&lt;Path&gt;" class="s8" d="m617 549.1l-31.2-7.1-20.7-16z"/>
			<path id="&lt;Path&gt;" class="s6" d="m617 549.1l-47.7-51.4 54.6 24.3z"/>
			<path id="&lt;Path&gt;" class="s5" d="m623.9 522l-54.6-24.3 33.2-4.6z"/>
			<path id="&lt;Path&gt;" class="s6" d="m602.5 493.1l-33.2 4.6 15.8-15.4z"/>
			<path id="&lt;Path&gt;" class="s3" d="m623.9 522l17.1 7.7-24 19.4z"/>
			<path id="&lt;Path&gt;" class="s9" d="m602.5 493.1l38.5 36.6-17.1-7.7z"/>
			<path id="&lt;Path&gt;" class="s2" d="m617 549.1l24-19.4-3.7 16.5z"/>
			<path id="&lt;Path&gt;" class="s0" d="m637.3 546.2l-38.8 40.8 18.5-37.9z"/>
			<path id="&lt;Path&gt;" class="s7" d="m617 549.1l-18.5 37.9-12.7-45z"/>
			<path id="&lt;Path&gt;" class="s8" d="m583.7 554.3l-41.4 19.5 43.5-31.8z"/>
			<path id="&lt;Path&gt;" class="s0" d="m598.5 587l-56.2-13.2 41.4-19.5z"/>
			<path id="&lt;Path&gt;" class="s3" d="m561.9 606.7l-19.6-32.9 56.2 13.2z"/>
			<path id="&lt;Path&gt;" class="s8" d="m524.9 614.9l17.4-41.1 1.3 26.4z"/>
			<path id="&lt;Path&gt;" class="s7" d="m543.6 600.2l-1.3-26.4 19.6 32.9z"/>
			<path id="&lt;Path&gt;" class="s2" d="m598.5 587l-25.8 26.1-10.8-6.4z"/>
			<path id="&lt;Path&gt;" class="s7" d="m561.9 606.7l10.8 6.4-47.8 1.8z"/>
			<path id="&lt;Path&gt;" class="s0" d="m524.9 614.9l14.4 12.9-36.3 17z"/>
			<path id="&lt;Path&gt;" class="s2" d="m572.7 613.1l-33.4 14.7-14.4-12.9z"/>
			<path id="&lt;Path&gt;" class="s7" d="m503 644.8l36.3-17-54 54z"/>
			<path id="&lt;Path&gt;" class="s8" d="m485.3 681.8l-3-17.7 20.7-19.3z"/>
			<path id="&lt;Path&gt;" class="s2" d="m453.7 674.1l16.6-10 3 17.7z"/>
			<path id="&lt;Path&gt;" class="s0" d="m485.3 681.8l54-54 33.4-14.7z"/>
			<path id="&lt;Path&gt;" class="s3" d="m572.7 613.1l-45.9 47.5-41.5 21.2z"/>
			<path id="&lt;Path&gt;" class="s2" d="m485.3 681.8l41.5-21.2-12 20.6z"/>
			<path id="&lt;Path&gt;" class="s0" d="m514.8 681.2l-25.5 33.2-4-32.6z"/>
			<path id="&lt;Path&gt;" class="s0" d="m449 691.4l8.3-6.2 32 29.2z"/>
			<path id="&lt;Path&gt;" class="s8" d="m489.3 714.4l-38.8-12.4-1.5-10.6z"/>
			<path id="&lt;Path&gt;" class="s2" d="m525 725.1l-35.7-10.7 25.5-33.2z"/>
			<path id="&lt;Path&gt;" class="s6" d="m541.9 746.5l-52.6-32.1 35.7 10.7z"/>
			<path id="&lt;Path&gt;" class="s3" d="m543.6 756.3l-54.3-41.9 52.6 32.1z"/>
			<path id="&lt;Path&gt;" class="s2" d="m520.8 752.7l-31.5-38.3 54.3 41.9z"/>
			<path id="&lt;Path&gt;" class="s0" d="m499.6 739.3l-10.3-24.9 31.5 38.3z"/>
			<path id="&lt;Path&gt;" class="s8" d="m538 370l-11-8.5 18.2-30z"/>
			<path id="&lt;Path&gt;" class="s7" d="m538 370l18.3-7.2 7.9 29.9z"/>
			<path id="&lt;Path&gt;" class="s0" d="m545.2 331.5l11.1 31.3-18.3 7.2z"/>
			<path id="&lt;Path&gt;" class="s3" d="m570.1 356.6l-13.8 6.2-11.1-31.3z"/>
			<path id="&lt;Path&gt;" class="s8" d="m564.2 392.7l-7.9-29.9 24.5 29.2z"/>
			<path id="&lt;Path&gt;" class="s7" d="m580.8 392l-24.5-29.2 13.8-6.2z"/>
			<path id="&lt;Path&gt;" class="s8" d="m590.3 353.5l12.2 8-21.7 30.5z"/>
			<path id="&lt;Path&gt;" class="s0" d="m580.8 392l-10.7-35.4 20.2-3.1z"/>
			<path id="&lt;Path&gt;" class="s5" d="m590.3 353.5l-20.2 3.1 32.7-39.3z"/>
			<path id="&lt;Path&gt;" class="s3" d="m602.8 317.3l16.7 5.6-29.2 30.6z"/>
			<path id="&lt;Path&gt;" class="s7" d="m590.3 353.5l29.2-30.6-17 38.6z"/>
			<path id="&lt;Path&gt;" class="s8" d="m628.9 307.3l-9.4 15.6-16.7-5.6z"/>
			<path id="&lt;Path&gt;" class="s7" d="m602.8 317.3l11.5-35.8 14.6 25.8z"/>
			<path id="&lt;Path&gt;" class="s0" d="m628.9 307.3l-14.6-25.8 24.3 13.2z"/>
			<path id="&lt;Path&gt;" class="s7" d="m638.6 294.7l-24.3-13.2 25.7-2z"/>
			<path id="&lt;Path&gt;" class="s3" d="m640 279.5l-25.7 2 6.6-20.8z"/>
			<path id="&lt;Path&gt;" class="s5" d="m620.9 260.7l-6.6 20.8-5.9-10.7z"/>
			<path id="&lt;Path&gt;" class="s3" d="m601.4 285.7l12.9-4.2-11.5 35.8z"/>
			<path id="&lt;Path&gt;" class="s4" d="m371.3 345.8l-22.3-22 12.2-5.1z"/>
			<path id="&lt;Path&gt;" class="s7" d="m495.5 173.8l-26.6-19.4 17.3-1.6z"/>
			<path id="&lt;Path&gt;" class="s3" d="m273.1 319.5l-16.3 0.4 30.1-26.5z"/>
			<path id="&lt;Path&gt;" class="s3" d="m306.4 566.4l-14.9-0.4 49.9-25.2z"/>
			<path id="&lt;Path&gt;" class="s3" d="m220.5 719.5l-36.5-23 10.5-4z"/>
		</g>
	</g>
</svg>