<svg version="1.2" xmlns="http://www.w3.org/2000/svg" viewBox="0 0 32 32" width="32" height="32">
	<title>menu-svg</title>
	<style>
		.s0 { fill: #ff5a1f } 
		.s1 { fill: #00296b } 
	</style>
	<path id="Layer" class="s0" d="m25.5 13c-3.6 0-6.5-2.9-6.5-6.5 0-3.6 2.9-6.5 6.5-6.5 3.6 0 6.5 2.9 6.5 6.5 0 3.6-2.9 6.5-6.5 6.5z"/>
	<path id="Layer" class="s0" d="m22 26c0-0.6 0.4-1 1-1h3c0.6 0 1 0.4 1 1 0 0.6-0.4 1-1 1h-3c-0.6 0-1-0.4-1-1z"/>
	<path id="Layer" fill-rule="evenodd" class="s1" d="m10.4 0.6q1.3 0.5 2.4 1.6 1.1 1.1 1.6 2.4 0.6 1.4 0.6 2.9c0 3-1.8 5.8-4.6 6.9-2.8 1.2-6.1 0.5-8.2-1.6-2.1-2.1-2.8-5.4-1.6-8.2 1.1-2.8 3.9-4.6 6.9-4.6q1.5 0 2.9 0.6zm-0.8 12q1-0.4 1.8-1.2 0.8-0.8 1.2-1.8 0.4-1 0.4-2.1c0-2.2-1.3-4.2-3.4-5.1-2.1-0.8-4.4-0.4-6 1.2-1.6 1.6-2 3.9-1.2 6 0.9 2.1 2.9 3.4 5.1 3.4q1.1 0 2.1-0.4zm17.5-9.4q0.6 0.3 1 0.7 0.4 0.4 0.7 1 0.2 0.5 0.2 1.1v6q0 0.6-0.2 1.1-0.3 0.6-0.7 1-0.4 0.4-1 0.7-0.5 0.2-1.1 0.2h-9v-9q0-0.6 0.2-1.1 0.3-0.6 0.7-1 0.4-0.4 1-0.7 0.5-0.2 1.1-0.2h6q0.6 0 1.1 0.2zm-0.1 2.8q0-0.2-0.1-0.4-0.1-0.2-0.2-0.3-0.1-0.1-0.3-0.2-0.2-0.1-0.4-0.1h-6q-0.2 0-0.4 0.1-0.2 0.1-0.3 0.2-0.1 0.1-0.2 0.3-0.1 0.2-0.1 0.4v7h7q0.2 0 0.4-0.1 0.2-0.1 0.3-0.2 0.1-0.1 0.2-0.3 0.1-0.2 0.1-0.4zm-12 11v9.5q0 0.5-0.2 0.9-0.2 0.5-0.5 0.9-0.4 0.3-0.9 0.5-0.4 0.2-0.9 0.2h-7q-0.5 0-0.9-0.2-0.5-0.2-0.9-0.5-0.3-0.4-0.5-0.9-0.2-0.4-0.2-0.9v-7q0-0.5 0.2-0.9 0.2-0.5 0.5-0.9 0.4-0.3 0.9-0.5 0.4-0.2 0.9-0.2zm-2 2h-7.4q-0.1 0-0.2 0-0.1 0.1-0.2 0.2-0.1 0-0.1 0.1-0.1 0.1-0.1 0.2v7q0 0.1 0.1 0.2 0 0.1 0.1 0.1 0.1 0.1 0.2 0.2 0.1 0 0.2 0h6.9q0.1 0 0.2 0 0.1-0.1 0.2-0.2 0.1 0 0.1-0.1 0-0.1 0-0.2zm17.2-1.8q0.5 0.2 1 0.6 0.4 0.5 0.6 1 0.2 0.6 0.2 1.2v9q0 0.6-0.2 1.1-0.2 0.6-0.6 1-0.5 0.4-1 0.6-0.6 0.3-1.2 0.3h-9q-0.6 0-1.1-0.3-0.6-0.2-1-0.6-0.4-0.4-0.6-1-0.3-0.5-0.3-1.1v-12h12q0.6 0 1.2 0.2zm-0.2 2.8q0-0.2 0-0.4-0.1-0.2-0.3-0.3-0.1-0.2-0.3-0.3-0.2 0-0.4 0h-10v10q0 0.2 0.1 0.3 0.1 0.2 0.2 0.4 0.2 0.1 0.4 0.2 0.1 0.1 0.3 0.1h9q0.2 0 0.4-0.1 0.2-0.1 0.3-0.2 0.2-0.2 0.3-0.4 0-0.1 0-0.3z"/>
</svg>